<?xml version="1.0" encoding="UTF-8" standalone="no"?>
<!-- Created with Inkscape (http://www.inkscape.org/) -->

<svg
   width="206.49509mm"
   height="196.25142mm"
   viewBox="0 0 206.49509 196.25143"
   version="1.1"
   id="svg1"
   inkscape:version="1.3.2 (091e20e, 2023-11-25, custom)"
   xml:space="preserve"
   sodipodi:docname="drama.svg"
   inkscape:export-filename="drama.png"
   inkscape:export-xdpi="96"
   inkscape:export-ydpi="96"
   xmlns:inkscape="http://www.inkscape.org/namespaces/inkscape"
   xmlns:sodipodi="http://sodipodi.sourceforge.net/DTD/sodipodi-0.dtd"
   xmlns="http://www.w3.org/2000/svg"
   xmlns:svg="http://www.w3.org/2000/svg"><sodipodi:namedview
     id="namedview1"
     pagecolor="#ffffff"
     bordercolor="#000000"
     borderopacity="0.25"
     inkscape:showpageshadow="2"
     inkscape:pageopacity="0.0"
     inkscape:pagecheckerboard="0"
     inkscape:deskcolor="#d1d1d1"
     inkscape:document-units="mm"
     showguides="false"
     inkscape:zoom="0.70710679"
     inkscape:cx="336.58282"
     inkscape:cy="366.98841"
     inkscape:window-width="1920"
     inkscape:window-height="1009"
     inkscape:window-x="-8"
     inkscape:window-y="-8"
     inkscape:window-maximized="1"
     inkscape:current-layer="layer1"
     showgrid="false" /><defs
     id="defs1" /><g
     inkscape:label="Layer 1"
     inkscape:groupmode="layer"
     id="layer1"
     transform="matrix(4.6519992,0,0,4.6519992,-188.19166,-40.129285)"><path
       id="path1"
       style="fill:#3788ac;fill-opacity:1;stroke-width:0.458999;stroke-linecap:square;stroke-opacity:0.7;paint-order:stroke fill markers"
       d="m 61.974046,10.888275 a 10,10 0 0 0 -9.999907,10.000424 10,10 0 0 0 0.279053,2.238106 l -0.09715,-5.17e-4 0.176733,0.364836 a 10,10 0 0 0 1.592668,3.290238 l 8.178828,16.893543 7.944735,-16.928683 a 10,10 0 0 0 1.600419,-3.410128 l 0.05116,-0.109554 h -0.02739 a 10,10 0 0 0 0.300757,-2.337841 10,10 0 0 0 -9.999906,-10.000424 z" /><path
       style="fill:#000000;fill-opacity:1;stroke-width:0.458999;stroke-linecap:square;stroke-opacity:0.7;paint-order:stroke fill markers"
       d="m 48.130074,21.27952 5.297048,-0.273985"
       id="path5" /><g
       style="fill:#000000"
       id="g20"
       transform="matrix(0.02853472,0,0,0.03003511,54.480579,12.975546)"><g
         id="g4">
	<g
   id="g3">
		<g
   id="g2">
			<path
   d="M 315.871,174.051 280.534,42.168 c -0.785,-2.927 -3.072,-5.222 -5.999,-6.016 -2.918,-0.802 -6.05,0.017 -8.209,2.125 l -20.233,19.789 c -54.485,53.274 -134.178,74.632 -208.026,55.74 l -27.418,-7.023 c -2.918,-0.751 -6.042,0.111 -8.183,2.27 -2.133,2.159 -2.961,5.282 -2.176,8.209 l 35.328,131.883 c 17.357,64.734 76.109,107.537 140.16,107.537 12.39,0 24.994,-1.604 37.521,-4.958 77.262,-20.711 123.274,-100.412 102.572,-177.673 z m -138.701,7.125 c 3.337,-21.99 14.293,-35.627 32.58,-40.525 18.253,-4.907 34.577,1.425 48.461,18.807 2.944,3.678 2.347,9.054 -1.34,11.998 -3.695,2.944 -9.045,2.338 -11.989,-1.348 -9.66,-12.083 -19.174,-16.068 -30.72,-12.979 -11.597,3.115 -17.801,11.315 -20.122,26.607 -0.64,4.224 -4.275,7.253 -8.422,7.253 -0.427,0 -0.862,-0.034 -1.297,-0.102 -4.659,-0.708 -7.859,-5.052 -7.151,-9.711 z m -82.039,29.056 c -0.631,4.233 -4.275,7.262 -8.422,7.262 -0.427,0 -0.853,-0.034 -1.289,-0.102 -4.659,-0.7 -7.868,-5.052 -7.159,-9.711 3.328,-21.99 14.276,-35.627 32.572,-40.525 18.287,-4.915 34.594,1.425 48.478,18.807 2.935,3.678 2.338,9.045 -1.348,11.989 -3.686,2.953 -9.054,2.338 -11.989,-1.34 -9.66,-12.075 -19.123,-16.068 -30.729,-12.979 -11.598,3.115 -17.802,11.316 -20.114,26.599 z m 80.358,95.292 c -20.685,0 -40.849,-6.886 -57.694,-20.079 -3.703,-2.901 -4.352,-8.269 -1.451,-11.972 2.901,-3.721 8.26,-4.361 11.989,-1.459 19.208,15.053 43.733,20.079 67.294,13.773 23.552,-6.315 42.283,-22.929 51.405,-45.585 1.766,-4.378 6.767,-6.477 11.102,-4.736 4.369,1.758 6.485,6.733 4.727,11.102 -11.136,27.682 -34.031,47.983 -62.814,55.697 -8.148,2.184 -16.4,3.259 -24.558,3.259 z"
   id="path1-2" />
			<path
   d="m 509.527,228.516 c -2.133,-2.15 -5.248,-3.012 -8.183,-2.261 l -17.331,4.437 c -48.768,12.476 -99.985,9.071 -146.543,-9.361 -1.084,17.801 -5.18,35.089 -11.776,51.285 0.213,-0.265 0.435,-0.478 0.657,-0.751 2.935,-3.678 8.294,-4.275 11.989,-1.348 3.686,2.944 4.284,8.311 1.34,11.998 -8.926,11.187 -18.884,17.724 -29.713,19.703 -21.06,31.309 -53.018,55.467 -92.254,65.988 -6.724,1.801 -13.542,3.157 -20.403,4.079 14.054,48.026 51.712,85.589 101.385,98.901 12.535,3.354 25.122,4.958 37.521,4.958 64.043,0 122.82,-42.803 140.16,-107.537 l 35.328,-131.883 c 0.784,-2.925 -0.043,-6.049 -2.177,-8.208 z M 385.504,430.825 c -1.05,0.418 -2.125,0.623 -3.191,0.623 -3.371,0 -6.571,-2.022 -7.91,-5.35 -9.131,-22.656 -27.861,-39.262 -51.405,-45.577 -23.569,-6.289 -48.102,-1.28 -67.311,13.773 -3.721,2.91 -9.071,2.261 -11.981,-1.451 -2.91,-3.712 -2.261,-9.071 1.451,-11.981 23.475,-18.406 53.47,-24.542 82.261,-16.828 28.774,7.714 51.661,28.006 62.814,55.689 1.757,4.369 -0.359,9.335 -4.728,11.102 z M 438.59,309.02 c -10.846,13.585 -23.177,20.42 -36.77,20.42 -3.806,0 -7.706,-0.538 -11.699,-1.604 -18.278,-4.898 -29.235,-18.534 -32.572,-40.525 -0.708,-4.659 2.492,-9.011 7.151,-9.719 4.668,-0.717 9.003,2.492 9.711,7.159 2.33,15.283 8.533,23.492 20.13,26.598 11.648,3.106 21.086,-0.896 30.72,-12.979 2.935,-3.678 8.303,-4.275 11.989,-1.348 3.678,2.944 4.284,8.311 1.34,11.998 z"
   id="path2" />
		</g>
	</g>
</g></g></g></svg>
