<?xml version="1.0" encoding="UTF-8" standalone="no"?>
<!-- Created with Inkscape (http://www.inkscape.org/) -->

<svg
   width="208.09616mm"
   height="188.71011mm"
   viewBox="0 0 208.09617 188.71012"
   version="1.1"
   id="svg1"
   inkscape:version="1.3.2 (091e20e, 2023-11-25, custom)"
   xml:space="preserve"
   sodipodi:docname="muzika.svg"
   inkscape:export-filename="muzika.png"
   inkscape:export-xdpi="96"
   inkscape:export-ydpi="96"
   xmlns:inkscape="http://www.inkscape.org/namespaces/inkscape"
   xmlns:sodipodi="http://sodipodi.sourceforge.net/DTD/sodipodi-0.dtd"
   xmlns="http://www.w3.org/2000/svg"
   xmlns:svg="http://www.w3.org/2000/svg"><sodipodi:namedview
     id="namedview1"
     pagecolor="#ffffff"
     bordercolor="#000000"
     borderopacity="0.25"
     inkscape:showpageshadow="2"
     inkscape:pageopacity="0.0"
     inkscape:pagecheckerboard="0"
     inkscape:deskcolor="#d1d1d1"
     inkscape:document-units="mm"
     showguides="false"
     inkscape:zoom="0.70710679"
     inkscape:cx="11.313708"
     inkscape:cy="284.96403"
     inkscape:window-width="1920"
     inkscape:window-height="1009"
     inkscape:window-x="-8"
     inkscape:window-y="-8"
     inkscape:window-maximized="1"
     inkscape:current-layer="layer1"
     showgrid="false" /><defs
     id="defs1" /><g
     inkscape:label="Layer 1"
     inkscape:groupmode="layer"
     id="layer1"
     transform="matrix(4.1840868,0,0,4.1840868,-165.671,-35.034527)"><path
       id="path1"
       style="fill:#3788ac;fill-opacity:1;stroke-width:0.458999;stroke-linecap:square;stroke-opacity:0.7;paint-order:stroke fill markers"
       d="m 61.974046,10.888275 a 10,10 0 0 0 -9.999907,10.000424 10,10 0 0 0 0.279053,2.238106 l -0.09715,-5.17e-4 0.176733,0.364836 a 10,10 0 0 0 1.592668,3.290238 l 8.178828,16.893543 7.944735,-16.928683 a 10,10 0 0 0 1.600419,-3.410128 l 0.05116,-0.109554 h -0.02739 a 10,10 0 0 0 0.300757,-2.337841 10,10 0 0 0 -9.999906,-10.000424 z" /><path
       style="fill:#000000;fill-opacity:1;stroke-width:0.458999;stroke-linecap:square;stroke-opacity:0.7;paint-order:stroke fill markers"
       d="m 48.130074,21.27952 5.297048,-0.273985"
       id="path5" /><g
       style="fill:none"
       id="g20"
       transform="matrix(0.84287257,0,0,0.84287257,55.363962,13.937319)"><path
         d="M 15,1 H 4 V 9 H 3 c -1.65685,0 -3,1.3431 -3,3 0,1.6569 1.34315,3 3,3 1.65685,0 3,-1.3431 3,-3 V 5 h 7 v 4 h -1 c -1.6569,0 -3,1.3431 -3,3 0,1.6569 1.3431,3 3,3 1.6569,0 3,-1.3431 3,-3 z"
         fill="#000000"
         id="path1-5" /></g></g></svg>
