<?xml version="1.0" encoding="UTF-8" standalone="no"?>
<!-- Created with Inkscape (http://www.inkscape.org/) -->

<svg
   width="200.33466mm"
   height="164.72784mm"
   viewBox="0 0 200.33466 164.72784"
   version="1.1"
   id="svg1"
   inkscape:version="1.3.2 (091e20e, 2023-11-25, custom)"
   xml:space="preserve"
   sodipodi:docname="kulturni.svg"
   inkscape:export-filename="kulturni.png"
   inkscape:export-xdpi="96"
   inkscape:export-ydpi="96"
   xmlns:inkscape="http://www.inkscape.org/namespaces/inkscape"
   xmlns:sodipodi="http://sodipodi.sourceforge.net/DTD/sodipodi-0.dtd"
   xmlns="http://www.w3.org/2000/svg"
   xmlns:svg="http://www.w3.org/2000/svg"><sodipodi:namedview
     id="namedview1"
     pagecolor="#ffffff"
     bordercolor="#000000"
     borderopacity="0.25"
     inkscape:showpageshadow="2"
     inkscape:pageopacity="0.0"
     inkscape:pagecheckerboard="0"
     inkscape:deskcolor="#d1d1d1"
     inkscape:document-units="mm"
     showguides="false"
     inkscape:zoom="0.5"
     inkscape:cx="304"
     inkscape:cy="-75"
     inkscape:window-width="1920"
     inkscape:window-height="1009"
     inkscape:window-x="-8"
     inkscape:window-y="-8"
     inkscape:window-maximized="1"
     inkscape:current-layer="layer1"
     showgrid="false" /><defs
     id="defs1" /><g
     inkscape:label="Layer 1"
     inkscape:groupmode="layer"
     id="layer1"
     transform="translate(16.765168,-2.5085723)"><path
       id="path1"
       style="fill:#3788ac;fill-opacity:1;stroke-width:1.96003;stroke-linecap:square;stroke-opacity:0.7;paint-order:stroke fill markers"
       d="m 95.143769,12.104351 a 42.702306,42.702306 0 0 0 -42.701908,42.70412 42.702306,42.702306 0 0 0 1.19162,9.557227 l -0.414843,-0.0022 0.754691,1.557934 a 42.702306,42.702306 0 0 0 6.80106,14.050077 L 95.699871,152.11083 129.62572,79.821445 a 42.702306,42.702306 0 0 0 6.83416,-14.562034 l 0.2185,-0.467823 h -0.11699 a 42.702306,42.702306 0 0 0 1.28428,-9.983117 42.702306,42.702306 0 0 0 -42.701909,-42.70412 z" /><path
       d="m 82.869767,29.163102 a 6.7196883,6.7196883 0 0 1 -6.719669,6.719707 6.7196883,6.7196883 0 0 1 -6.717961,-6.719707 6.7196883,6.7196883 0 0 1 6.719669,-6.719669 6.7196883,6.7196883 0 0 1 6.717961,6.719669 z m 4.575631,19.263683 c -12.100616,-12.157782 -32.7758,6.97947 -17.616675,19.765972 l 22.670298,22.017372 8.297459,-8.058483 M 93.9815,54.68406 c 3.709907,-12.966552 23.0877,-12.156023 25.63701,1.037229 0.74305,3.64739 -0.32386,7.968391 -2.82831,10.625101 -3.38426,3.242127 -6.72138,6.52918 -10.1055,9.77121 L 96.206861,65.896054 c -4.26406,-5.491765 -2.225585,-10.13145 -2.225585,-11.210417 z m 7.50253,-25.514033 a 6.7196883,6.7196883 0 0 0 6.71967,6.719712 6.7196883,6.7196883 0 0 0 6.71796,-6.719712 6.7196883,6.7196883 0 0 0 -6.71972,-6.719668 6.7196883,6.7196883 0 0 0 -6.71791,6.719668 z"
       style="fill:none;stroke:#000000;stroke-width:5.49869;stroke-linecap:round;stroke-linejoin:round"
       id="path1-1" /></g></svg>
